# xmcd
#
# Track frame offsets: 
#        150
#        12798
#        27990
#        41661
#        58691
#        71266
#        84593
#        85993
#        100910
#        115688
#        134186
#        144656
#        158160
#
# Disc length: 2176 seconds
#
# Revision: 0
# Processed by: cddbd v1.5.1PL0 Copyright (c) Steve Scherf et al.
# Submitted via: ExactAudioCopy v0.95a5
#
DISCID=ad087e0d
DTITLE=Sauvez Les Meubles - Presque Oui
DYEAR=2005
DGENRE=Chanson
TTITLE0=Les perroquets du Périgord
TTITLE1=Demain j'avoue
TTITLE2=L'ongle
TTITLE3=La kitchenette et les voisins
TTITLE4=Georges et Louis
TTITLE5=Le petit pompier
TTITLE6=Le rêve
TTITLE7=J'préférais quand t'existais pas
TTITLE8=Noé
TTITLE9=Dégât des eaux
TTITLE10=Une heure c'est trop court
TTITLE11=Le bout du monde
TTITLE12=Il sogno
EXTD=
EXTT0=
EXTT1=
EXTT2=
EXTT3=
EXTT4=
EXTT5=
EXTT6=
EXTT7=
EXTT8=
EXTT9=
EXTT10=
EXTT11=
EXTT12=
PLAYORDER=
